<svg viewBox="0 0 70 24" xmlns="http://www.w3.org/2000/svg">
  <path d="M7.4 12.7c0-2.05 1.65-3.05 1.75-3.1-.95-1.4-2.45-1.6-3-1.6-1.25-.15-2.5.75-3.15.75-.65 0-1.65-.7-2.7-.7-1.4 0-2.7.8-3.4 2.05-1.45 2.5-.35 6.2 1.05 8.25.7 1 1.5 2.1 2.55 2.05 1.05-.05 1.4-.65 2.65-.65 1.25 0 1.55.65 2.65.65 1.1 0 1.8-1 2.45-2 .8-1.15 1.1-2.3 1.15-2.35-.05 0-2.2-.85-2.2-3.35zM5.4 6.6c.55-.7.95-1.65.85-2.6-.8.05-1.8.55-2.4 1.2-.5.6-1 1.6-.85 2.55.95.05 1.85-.5 2.4-1.15z" fill="#FFFFFF"/>
  <text x="22" y="17" font-family="'Helvetica Neue', Helvetica, Arial, sans-serif" font-size="14" font-weight="500" fill="#FFFFFF">Pay</text>
</svg>
