<svg viewBox="0 0 80 24" xmlns="http://www.w3.org/2000/svg">
  <path d="M9.5 4h-5a1 1 0 0 0-1 .85L2 16.5a.6.6 0 0 0 .6.7h2.7a1 1 0 0 0 1-.85l.4-2.55a1 1 0 0 1 1-.85h1.95c4.05 0 6.4-1.95 7-5.85.25-1.7 0-3.05-.85-3.95C14.95 4.6 13.5 4 11.5 4H9.5zm.85 7.4c-.35 2.25-2.05 2.25-3.7 2.25h-.95l.65-4.1a.6.6 0 0 1 .6-.5h.45c1.15 0 2.25 0 2.8.65.35.4.45 1 .15 1.7z" fill="#FFFFFF"/>
  <path d="M29 11.4h-2.7a.6.6 0 0 0-.6.5l-.15.95-.25-.35c-.65-1-2.1-1.25-3.55-1.25-3.3 0-6.15 2.5-6.7 6-.3 1.75.1 3.4 1.1 4.55.9 1.05 2.2 1.5 3.75 1.5 2.65 0 4.1-1.7 4.1-1.7l-.15.95a.6.6 0 0 0 .6.7h2.45a1 1 0 0 0 1-.85l1.45-9.3a.6.6 0 0 0-.6-.7zm-3.85 5.95c-.3 1.65-1.6 2.75-3.25 2.75-.85 0-1.5-.3-1.95-.8-.45-.55-.6-1.25-.45-2.05.3-1.65 1.6-2.8 3.25-2.8.85 0 1.5.3 1.95.85.45.55.6 1.25.45 2.05z" fill="#FFFFFF"/>
  <path d="M42 11.4h-2.75a1 1 0 0 0-.85.45l-3.8 5.6-1.6-5.4a1 1 0 0 0-.95-.7h-2.7a.6.6 0 0 0-.6.75l3.05 8.95-2.85 4.05a.6.6 0 0 0 .5.95h2.7a1 1 0 0 0 .85-.45l9.15-13.2a.6.6 0 0 0-.55-1z" fill="#FFFFFF"/>
  <path d="M52.5 4h-5a1 1 0 0 0-1 .85L45 16.5a.6.6 0 0 0 .6.7h2.55a.7.7 0 0 0 .7-.6l.45-2.8a1 1 0 0 1 1-.85h1.95c4.05 0 6.4-1.95 7-5.85.25-1.7 0-3.05-.85-3.95-.85-.9-2.3-1.5-4.3-1.5h-1.6zm.85 7.4c-.35 2.25-2.05 2.25-3.7 2.25h-.95l.65-4.1a.6.6 0 0 1 .6-.5h.45c1.15 0 2.25 0 2.8.65.35.4.45 1 .15 1.7z" fill="#FFFFFF"/>
</svg>
